<svg width="999" height="226" viewBox="0 0 999 226" fill="none" xmlns="http://www.w3.org/2000/svg">
<path d="M422.6 140.1C422.6 129.9 424.4 120 428 110.4C431.6 100.8 436.7 92.3001 443.2 84.9001C449.7 77.5001 457.7 71.5001 467 66.9001C476.3 62.3001 486.7 60.1001 498 60.1001C503.6 60.1001 508.8 60.9001 513.6 62.5001C518.4 64.1001 522.6 66.4001 526.2 69.4001C529.8 72.4001 532.6 76.1001 534.6 80.5001C536.6 84.9001 537.6 89.9001 537.6 95.5001C537.6 104.4 535.6 112 531.6 118.3C527.6 124.5 522.1 129.6 515 133.5C507.9 137.4 499.5 140.2 489.7 142C480 143.8 469.3 144.6 457.8 144.6C458.9 151.3 461.4 156.1 465.1 158.8C468.8 161.6 474.8 163 482.9 163C488 163 493.2 162.6 498.5 161.7C503.8 160.8 508.7 159.5 513.3 157.7L515.3 179.5C515.7 183.3 513.3 186.8 509.7 187.9C506.5 188.8 502.9 189.7 498.8 190.6C491.9 192 484.3 192.8 476.2 192.8C466.3 192.8 458 191.4 451.2 188.6C444.4 185.8 438.9 182 434.7 177.2C430.5 172.4 427.4 166.8 425.5 160.4C423.6 154 422.6 147.2 422.6 140.1ZM492.3 88.3001C484.2 88.3001 477 91.2001 470.9 97.0001C464.8 102.8 460.7 110.5 458.8 120.1C468.7 119.8 476.7 118.9 482.7 117.6C488.8 116.2 493.5 114.6 496.8 112.7C500.2 110.8 502.4 108.7 503.5 106.5C504.6 104.3 505.2 102 505.2 99.8001C505.2 92.2001 500.9 88.3001 492.3 88.3001Z" fill="white"/>
<path d="M549.5 140.1C549.5 129.9 551.3 120 554.9 110.4C558.5 100.8 563.6 92.3001 570.1 84.9001C576.6 77.5001 584.6 71.5001 593.9 66.9001C603.2 62.3001 613.6 60.1001 624.9 60.1001C630.5 60.1001 635.7 60.9001 640.5 62.5001C645.3 64.1001 649.5 66.4001 653.1 69.4001C656.7 72.4001 659.5 76.1001 661.5 80.5001C663.5 84.9001 664.5 89.9001 664.5 95.5001C664.5 104.4 662.5 112 658.5 118.3C654.5 124.5 649 129.6 641.9 133.5C634.8 137.4 626.4 140.2 616.6 142C606.9 143.8 596.2 144.6 584.7 144.6C585.8 151.3 588.3 156.1 592 158.8C595.7 161.6 601.7 163 609.8 163C614.9 163 620.1 162.6 625.4 161.7C630.7 160.8 635.6 159.5 640.2 157.7L642.2 179.5C642.6 183.3 640.2 186.8 636.6 187.9C633.4 188.8 629.8 189.7 625.7 190.6C618.8 192 611.2 192.8 603.1 192.8C593.2 192.8 584.9 191.4 578.1 188.6C571.3 185.8 565.8 182 561.6 177.2C557.4 172.4 554.3 166.8 552.4 160.4C550.5 154 549.5 147.2 549.5 140.1ZM619.2 88.3001C611.1 88.3001 603.9 91.2001 597.8 97.0001C591.7 102.8 587.6 110.5 585.7 120.1C595.6 119.8 603.6 118.9 609.6 117.6C615.7 116.2 620.4 114.6 623.7 112.7C627.1 110.8 629.3 108.7 630.4 106.5C631.5 104.3 632.1 102 632.1 99.8001C632.2 92.2001 627.9 88.3001 619.2 88.3001Z" fill="white"/>
<path d="M772.5 140.1C772.5 129.9 774.3 120 777.9 110.4C781.5 100.8 786.6 92.3001 793.1 84.9001C799.6 77.5001 807.6 71.5001 816.9 66.9001C826.2 62.3001 836.6 60.1001 847.9 60.1001C853.5 60.1001 858.7 60.9001 863.5 62.5001C868.3 64.1001 872.5 66.4001 876.1 69.4001C879.7 72.4001 882.5 76.1001 884.5 80.5001C886.5 84.9001 887.5 89.9001 887.5 95.5001C887.5 104.4 885.5 112 881.5 118.3C877.5 124.5 872 129.6 864.9 133.5C857.8 137.4 849.4 140.2 839.6 142C829.9 143.8 819.2 144.6 807.7 144.6C808.8 151.3 811.3 156.1 815 158.8C818.7 161.6 824.7 163 832.8 163C837.9 163 843.1 162.6 848.4 161.7C853.7 160.8 858.6 159.5 863.2 157.7L865.2 179.5C865.6 183.3 863.2 186.8 859.6 187.9C856.4 188.8 852.8 189.7 848.7 190.6C841.8 192 834.2 192.8 826.1 192.8C816.2 192.8 807.9 191.4 801.1 188.6C794.3 185.8 788.8 182 784.6 177.2C780.4 172.4 777.3 166.8 775.4 160.4C773.5 154 772.5 147.2 772.5 140.1ZM842.2 88.3001C834.1 88.3001 826.9 91.2001 820.8 97.0001C814.7 102.8 810.6 110.5 808.7 120.1C818.6 119.8 826.6 118.9 832.6 117.6C838.7 116.2 843.4 114.6 846.7 112.7C850.1 110.8 852.3 108.7 853.4 106.5C854.5 104.3 855.1 102 855.1 99.8001C855.1 92.2001 850.8 88.3001 842.2 88.3001Z" fill="white"/>
<path d="M739 33.3H709.7C706 33.3 702.7 35.9001 701.8 39.5001L680.1 131.2C678.2 139.3 677.1 147.1 676.7 154.4C676.4 161.7 677.5 168.3 680.1 173.9C682.7 179.6 687 184 693 187.3C699.1 190.6 707.6 192.2 718.6 192.2C726.3 192.2 732.9 191.6 738.5 190.3C741.8 189.6 744.9 188.7 747.9 187.8C751.5 186.7 753.8 183.2 753.4 179.4L751.4 158.4C747.7 159.7 744.1 160.7 740.5 161.4C736.9 162.1 733.2 162.5 729.4 162.5C724.9 162.5 721.4 161.9 718.9 160.6C716.3 159.3 714.5 157.5 713.5 155.2C712.5 152.9 712.1 150.1 712.3 146.9C712.5 143.7 713.1 140.3 714.1 136.6L724.6 92.5001H757.8C761.5 92.5001 764.8 90 765.7 86.3L771.4 63.2001H731.6L739 33.3Z" fill="white"/>
<path d="M389.1 33.3H359.8C356.1 33.3 352.8 35.9001 351.9 39.5001L330.2 131.2C328.3 139.3 327.2 147.1 326.8 154.4C326.5 161.7 327.6 168.3 330.2 173.9C332.8 179.6 337.1 184 343.1 187.3C349.2 190.6 357.7 192.2 368.7 192.2C376.4 192.2 383 191.6 388.6 190.3C391.9 189.6 395 188.7 398 187.8C401.6 186.7 403.9 183.2 403.5 179.4L401.5 158.4C397.8 159.7 394.2 160.7 390.6 161.4C387 162.1 383.3 162.5 379.5 162.5C375 162.5 371.5 161.9 369 160.6C366.4 159.3 364.6 157.5 363.6 155.2C362.6 152.9 362.2 150.1 362.4 146.9C362.6 143.7 363.2 140.3 364.2 136.6L374.7 92.5001H407.9C411.6 92.5001 414.9 90 415.8 86.3L421.5 63.2001H381.7L389.1 33.3Z" fill="white"/>
<path d="M986.3 61.9001C981.4 61.2001 977 60.8 973 60.8C962.3 60.8 952.7 61.8 944.1 63.8C942.1 64.3 940.2 64.7001 938.3 65.2001C927.7 67.9001 919.5 76.2 916.9 86.8L892.2 189.4H927.9L947.3 108.6C952.9 85.3 988.5 94.0001 988.5 94.0001L999 65.3C995.4 63.7 991.1 62.6001 986.3 61.9001Z" fill="white"/>
<path d="M93.6999 106.3L59.2999 71.9C54.3999 67 52.2999 60.3 53.0999 53.9C53.6999 49.2 55.6999 44.7 59.2999 41.2L93.6999 6.80002C97.8999 2.60002 103.5 0.400024 109 0.400024C114.6 0.400024 120.1 2.50002 124.3 6.80002L158.7 41.2C162.9 45.4 165.1 51 165.1 56.5C165.1 62 163 67.6 158.7 71.8L124.3 106.2C120.1 110.4 114.5 112.6 109 112.6C103.5 112.6 97.8999 110.5 93.6999 106.3Z" fill="url(#paint0_linear_11_5)"/>
<path d="M210.7 184.8L176.3 219.2C167.8 227.7 154.1 227.7 145.6 219.2L124.3 197.9C115.8 189.4 102.1 189.4 93.5999 197.9L72.2999 219.2C63.7999 227.7 50.0999 227.7 41.5999 219.2L7.19995 184.8C-1.30005 176.3 -1.30005 162.6 7.19995 154.1L41.5999 119.7C50.0999 111.2 63.7999 111.2 72.2999 119.7L93.5999 141C102 149.4 115.6 149.5 124.1 141.2C124.2 141.1 124.2 141.1 124.3 141L145.6 119.7C154.1 111.2 167.8 111.2 176.3 119.7L210.7 154.1C219.2 162.6 219.2 176.3 210.7 184.8Z" fill="url(#paint1_linear_11_5)"/>
<defs>
<linearGradient id="paint0_linear_11_5" x1="109.009" y1="-81.9976" x2="109.009" y2="205.506" gradientUnits="userSpaceOnUse">
<stop stop-color="#007C78"/>
<stop offset="1" stop-color="#CBFFDF"/>
</linearGradient>
<linearGradient id="paint1_linear_11_5" x1="109.01" y1="-81.9975" x2="109.01" y2="205.506" gradientUnits="userSpaceOnUse">
<stop stop-color="#007C78"/>
<stop offset="1" stop-color="#CBFFDF"/>
</linearGradient>
</defs>
</svg>
